<svg xmlns="http://www.w3.org/2000/svg" width="34" height="34" viewBox="0 0 34 34"><defs><style>.a{fill:#1bd741;}.b{fill:#fff;fill-rule:evenodd;}</style></defs><g transform="translate(-21 -230)"><rect class="a" width="34" height="34" rx="5" transform="translate(21 230)"/><g transform="translate(-0.716 -6)"><path class="b" d="M6635,3343.952l1.325-4.718a9.43,9.43,0,1,1,3.533,3.473Zm5.1-2.971.3.181a7.858,7.858,0,1,0-2.53-2.469l.2.3-.763,2.71Z" transform="translate(-6605.284 -3082.396)"/><path class="b" d="M6870.884,3575.04l-.623-.04a.825.825,0,0,0-.521.181,2.91,2.91,0,0,0-.924,1.406,4.224,4.224,0,0,0,1,3.353,9.875,9.875,0,0,0,5.36,3.895,2.6,2.6,0,0,0,2.208-.281,1.977,1.977,0,0,0,.863-1.245l.1-.462a.384.384,0,0,0-.181-.361l-2.067-.944a.344.344,0,0,0-.4.1l-.8,1.044a.219.219,0,0,1-.261.08,6.408,6.408,0,0,1-3.453-2.951.252.252,0,0,1,.04-.261l.763-.9a.314.314,0,0,0,.061-.321l-.9-2.088A.278.278,0,0,0,6870.884,3575.04Z" transform="translate(-6834.341 -3327.377)"/></g></g></svg>